<svg width="501" height="501" viewBox="0 0 501 501" fill="none" xmlns="http://www.w3.org/2000/svg">
<path d="M102.252 333.525V234.014H142.103V253.36H122.293V269.231H141.06V288.345H122.293V333.525H102.252ZM164.509 334.451C158.176 334.451 153.813 332.559 151.418 328.775C149.102 324.991 147.943 319.353 147.943 311.862V248.726H168.332V307.807C168.332 308.348 168.332 309.815 168.332 312.209C168.332 314.526 168.679 316.186 169.374 317.19C170.147 318.117 171.305 318.581 172.85 318.581C174.935 318.581 176.248 317.731 176.789 316.032C177.329 314.256 177.599 311.746 177.599 308.502V307.807L177.715 248.726H197.872V333.525H177.599V324.489C176.209 328.041 174.587 330.59 172.734 332.134C170.88 333.679 168.139 334.451 164.509 334.451ZM205.984 248.726H226.257V258.109C227.261 254.789 228.999 252.24 231.47 250.464C234.019 248.61 237.146 247.683 240.853 247.683V264.597C237.996 264.597 234.83 265.022 231.354 265.871C227.956 266.643 226.257 267.57 226.257 268.651V333.525H205.984V248.726ZM245.69 243.05V228.917H265.963V243.05H245.69ZM245.69 333.525V248.726H265.963V333.525H245.69ZM298.65 334.451C281.737 334.451 273.28 325.686 273.28 308.154V274.096C273.28 266.064 275.52 259.693 279.999 254.982C284.556 250.193 290.773 247.799 298.65 247.799C306.528 247.799 312.706 250.193 317.185 254.982C321.742 259.693 324.02 266.064 324.02 274.096V308.154C324.02 325.686 315.564 334.451 298.65 334.451ZM298.65 318.812C300.272 318.812 301.469 318.233 302.241 317.075C303.014 315.916 303.4 314.333 303.4 312.325V270.852C303.4 265.91 301.817 263.438 298.65 263.438C295.484 263.438 293.901 265.91 293.901 270.852V312.325C293.901 314.333 294.287 315.916 295.059 317.075C295.831 318.233 297.028 318.812 298.65 318.812ZM347.892 334.451C341.56 334.451 337.196 332.559 334.802 328.775C332.485 324.991 331.327 319.353 331.327 311.862V248.726H351.715V307.807C351.715 308.348 351.715 309.815 351.715 312.209C351.715 314.526 352.063 316.186 352.758 317.19C353.53 318.117 354.689 318.581 356.233 318.581C358.318 318.581 359.631 317.731 360.172 316.032C360.713 314.256 360.983 311.746 360.983 308.502V307.807L361.099 248.726H381.256V333.525H360.983V324.489C359.593 328.041 357.971 330.59 356.117 332.134C354.264 333.679 351.522 334.451 347.892 334.451ZM412.652 334.451C395.894 334.451 387.514 325.956 387.514 308.965L387.63 302.246H407.903L408.019 312.209C408.019 314.217 408.405 315.762 409.177 316.843C409.949 317.847 411.224 318.349 413 318.349C415.703 318.349 417.055 316.148 417.055 311.746C417.055 308.502 416.398 305.953 415.085 304.1C413.85 302.246 411.842 300.277 409.061 298.192L398.288 289.851C394.581 286.993 391.916 284.059 390.294 281.047C388.673 277.958 387.862 273.633 387.862 268.072C387.862 263.747 388.981 260.079 391.221 257.067C393.538 253.978 396.589 251.661 400.373 250.116C404.157 248.572 408.366 247.799 413 247.799C429.45 247.799 437.675 255.986 437.675 272.358V273.98H416.707V270.737C416.707 268.729 416.36 267.03 415.664 265.639C415.047 264.172 413.965 263.438 412.421 263.438C411.031 263.438 409.949 263.863 409.177 264.713C408.482 265.485 408.135 266.566 408.135 267.956C408.135 271.045 409.332 273.44 411.726 275.139L424.237 284.29C428.716 287.611 432.153 291.241 434.547 295.18C436.941 299.041 438.138 303.945 438.138 309.892C438.138 317.77 435.899 323.832 431.419 328.08C426.94 332.327 420.684 334.451 412.652 334.451Z" fill="black"/>
<path d="M45.1503 433.402C37.1184 433.402 31.0172 430.969 26.8468 426.104C22.6764 421.161 20.5912 414.249 20.5912 405.368V357.987C20.5912 349.415 22.6764 342.966 26.8468 338.641C31.0172 334.239 37.1184 332.038 45.1503 332.038C53.1822 332.038 59.2834 334.239 63.4538 338.641C67.6242 342.966 69.7095 349.415 69.7095 357.987V405.368C69.7095 414.326 67.6242 421.239 63.4538 426.104C59.2834 430.969 53.1822 433.402 45.1503 433.402ZM45.1503 415.099C46.9266 415.099 48.1237 414.326 48.7415 412.782C49.3594 411.237 49.6683 409.075 49.6683 406.295V357.64C49.6683 355.477 49.3594 353.74 48.7415 352.427C48.2009 351.036 47.0425 350.341 45.2662 350.341C41.9453 350.341 40.2848 352.851 40.2848 357.871V406.41C40.2848 409.268 40.6324 411.43 41.3274 412.898C42.0225 414.365 43.2968 415.099 45.1503 415.099ZM77.7408 332.965H108.324C113.189 332.965 116.935 334.084 119.561 336.324C122.264 338.487 124.079 341.576 125.006 345.592C125.932 349.53 126.396 354.589 126.396 360.767C126.396 366.405 125.662 370.807 124.195 373.974C122.727 377.14 120.179 379.341 116.549 380.577C119.561 381.195 121.723 382.701 123.036 385.095C124.426 387.489 125.121 390.733 125.121 394.826L124.89 432.475H105.428V393.552C105.428 390.771 104.887 388.995 103.806 388.223C102.725 387.45 100.755 387.064 97.8978 387.064V432.475H77.7408V332.965ZM102.763 369.803C105.544 369.803 106.934 366.791 106.934 360.767C106.934 358.142 106.818 356.172 106.586 354.859C106.354 353.546 105.93 352.658 105.312 352.195C104.694 351.654 103.806 351.384 102.647 351.384H98.0136V369.803H102.763ZM153.453 433.402C146.27 433.402 140.903 430.892 137.35 425.872C133.875 420.775 132.137 413.091 132.137 402.819V359.957C132.137 350.766 134.184 343.815 138.277 339.104C142.37 334.393 148.471 332.038 156.581 332.038C163.145 332.038 168.242 333.351 171.872 335.977C175.502 338.602 178.012 342.425 179.402 347.445C180.792 352.465 181.487 358.914 181.487 366.791H162.025V357.871C162.025 355.477 161.678 353.624 160.983 352.311C160.365 350.998 159.206 350.341 157.507 350.341C153.723 350.341 151.831 352.813 151.831 357.755V405.947C151.831 408.959 152.217 411.237 152.989 412.782C153.762 414.326 155.113 415.099 157.044 415.099C158.975 415.099 160.326 414.326 161.098 412.782C161.871 411.237 162.257 408.959 162.257 405.947V391.698H156.928V374.553H181.255V432.475H173.262L169.903 424.135C166.35 430.313 160.867 433.402 153.453 433.402ZM186.509 432.475L196.124 332.965H229.835L239.335 432.475H220.452L219.062 416.373H207.014L205.855 432.475H186.509ZM208.52 400.502H217.556L213.154 349.878H212.227L208.52 400.502ZM245.399 432.475V332.965H265.904L275.056 380.577V332.965H294.286V432.475H274.824L264.861 382.662V432.475H245.399ZM302.169 432.475V332.965H321.399V432.475H302.169ZM352.974 433.402C343.938 433.402 337.412 431.163 333.396 426.683C329.38 422.204 327.372 414.983 327.372 405.02V395.289H346.95V407.685C346.95 412.627 348.533 415.099 351.7 415.099C353.476 415.099 354.712 414.597 355.407 413.593C356.102 412.512 356.449 410.735 356.449 408.264C356.449 405.02 356.063 402.356 355.291 400.271C354.519 398.108 353.515 396.332 352.279 394.942C351.12 393.474 348.997 391.235 345.907 388.223L337.335 379.65C330.693 373.163 327.372 365.98 327.372 358.103C327.372 349.608 329.303 343.159 333.164 338.757C337.103 334.278 342.818 332.038 350.309 332.038C359.268 332.038 365.717 334.432 369.656 339.22C373.594 343.931 375.564 351.345 375.564 361.463H355.291L355.175 354.628C355.175 353.315 354.789 352.272 354.017 351.5C353.321 350.728 352.317 350.341 351.005 350.341C349.46 350.341 348.301 350.766 347.529 351.616C346.757 352.465 346.371 353.624 346.371 355.091C346.371 358.335 348.224 361.694 351.931 365.17L363.516 376.291C366.219 378.916 368.459 381.426 370.235 383.821C372.011 386.137 373.44 388.918 374.521 392.161C375.602 395.328 376.143 399.112 376.143 403.514C376.143 413.322 374.328 420.775 370.698 425.872C367.146 430.892 361.238 433.402 352.974 433.402ZM382.739 432.475V332.965H422.589V352.195H403.012V371.541H421.779V390.308H403.012V413.129H423.864V432.475H382.739ZM430.48 332.965H457.935C465.04 332.965 470.369 334.934 473.921 338.873C477.474 342.811 479.289 348.642 479.366 356.365L479.598 402.935C479.675 412.743 477.976 420.119 474.501 425.061C471.025 430.004 465.272 432.475 457.24 432.475H430.48V332.965ZM453.996 414.867C457.626 414.867 459.441 413.091 459.441 409.538V358.219C459.441 355.979 459.248 354.319 458.862 353.238C458.553 352.079 457.935 351.307 457.008 350.921C456.081 350.534 454.653 350.341 452.722 350.341H450.521V414.867H453.996Z" fill="black"/>
<path d="M175.235 249.981C168.67 249.981 164.152 247.819 161.681 243.494C159.287 239.092 158.09 232.836 158.09 224.727C158.09 218.085 158.939 212.988 160.638 209.435C162.414 205.883 164.847 203.296 167.936 201.674C171.026 199.975 175.737 198.121 182.069 196.113L187.63 194.26V194.028V185.571C187.63 183.332 187.167 181.632 186.24 180.474C185.39 179.238 184.348 178.621 183.112 178.621C182.031 178.621 181.065 179.123 180.216 180.127C179.444 181.13 179.057 182.482 179.057 184.181V189.278H159.364V186.498C159.364 178.157 161.295 172.21 165.156 168.658C169.095 165.105 175.466 163.329 184.27 163.329C191.298 163.329 197.013 165.183 201.416 168.89C205.818 172.519 208.019 177.694 208.019 184.413V249.054H187.862V238.976C186.858 242.451 185.236 245.154 182.996 247.085C180.834 249.016 178.247 249.981 175.235 249.981ZM183.228 234.226C184.772 234.226 185.854 233.608 186.472 232.373C187.167 231.06 187.514 229.476 187.514 227.623V203.991C184.502 205.149 182.262 206.616 180.795 208.393C179.405 210.169 178.71 212.64 178.71 215.807V226.696C178.71 231.716 180.216 234.226 183.228 234.226ZM215.826 164.256H236.099V175.029C236.949 171.554 238.416 168.735 240.501 166.573C242.587 164.41 245.367 163.329 248.842 163.329C254.557 163.329 258.766 165.105 261.469 168.658C264.25 172.133 265.64 177.115 265.64 183.602V249.054H245.714V185.687C245.714 183.834 245.328 182.25 244.556 180.937C243.861 179.625 242.741 178.968 241.197 178.968C239.111 178.968 237.721 179.933 237.026 181.864C236.408 183.718 236.099 186.228 236.099 189.394V249.054H215.826V164.256ZM290.317 249.981C285.375 249.981 281.629 248.823 279.081 246.506C276.609 244.112 274.949 240.984 274.099 237.122C273.327 233.183 272.941 228.164 272.941 222.062L273.172 183.834C273.172 177.81 274.678 172.906 277.69 169.121C280.78 165.26 285.104 163.329 290.665 163.329C296.148 163.329 300.242 165.144 302.945 168.774V148.964H323.217V249.054H302.945V240.018C301.786 243.339 300.203 245.849 298.195 247.548C296.264 249.17 293.638 249.981 290.317 249.981ZM298.079 234.11C300.087 234.11 301.4 233.145 302.018 231.214C302.636 229.206 302.945 226.542 302.945 223.221V219.63V187.772C302.945 185.301 302.597 183.216 301.902 181.517C301.207 179.818 299.971 178.968 298.195 178.968C296.187 178.968 294.835 179.779 294.14 181.401C293.523 182.945 293.214 185.069 293.214 187.772V223.453C293.214 230.558 294.835 234.11 298.079 234.11Z" fill="black"/>
<path d="M117.94 163.377V63.8664H157.79V83.2125H137.981V99.0833H156.748V118.198H137.981V163.377H117.94ZM179.27 164.304C172.705 164.304 168.187 162.142 165.716 157.817C163.322 153.415 162.124 147.159 162.124 139.05C162.124 132.408 162.974 127.311 164.673 123.758C166.449 120.206 168.882 117.618 171.971 115.997C175.06 114.298 179.772 112.444 186.104 110.436L191.665 108.583V108.351V99.8942C191.665 97.6546 191.202 95.9555 190.275 94.797C189.425 93.5614 188.383 92.9435 187.147 92.9435C186.066 92.9435 185.1 93.4455 184.251 94.4495C183.479 95.4535 183.092 96.805 183.092 98.5041V103.601H163.399V100.821C163.399 92.4801 165.33 86.5334 169.191 82.9809C173.13 79.4283 179.501 77.652 188.305 77.652C195.333 77.652 201.048 79.5055 205.45 83.2125C209.853 86.8424 212.054 92.0168 212.054 98.7358V163.377H191.897V153.299C190.893 156.774 189.271 159.477 187.031 161.408C184.869 163.339 182.282 164.304 179.27 164.304ZM187.263 148.549C188.807 148.549 189.889 147.931 190.506 146.696C191.202 145.383 191.549 143.799 191.549 141.946V118.314C188.537 119.472 186.297 120.939 184.83 122.716C183.44 124.492 182.745 126.963 182.745 130.13V141.019C182.745 146.039 184.251 148.549 187.263 148.549ZM243.146 164.304C226.387 164.304 218.008 155.809 218.008 138.818L218.124 132.099H238.397L238.512 142.062C238.512 144.07 238.899 145.614 239.671 146.696C240.443 147.7 241.718 148.202 243.494 148.202C246.197 148.202 247.548 146.001 247.548 141.598C247.548 138.355 246.892 135.806 245.579 133.953C244.343 132.099 242.335 130.13 239.555 128.045L228.781 119.704C225.074 116.846 222.41 113.911 220.788 110.899C219.166 107.81 218.355 103.485 218.355 97.9249C218.355 93.6 219.475 89.9316 221.715 86.9196C224.032 83.8304 227.082 81.5135 230.867 79.9689C234.651 78.4243 238.86 77.652 243.494 77.652C259.944 77.652 268.169 85.8384 268.169 102.211V103.833H247.201V100.589C247.201 98.5813 246.853 96.8823 246.158 95.4921C245.54 94.0247 244.459 93.2911 242.915 93.2911C241.524 93.2911 240.443 93.7158 239.671 94.5653C238.976 95.3376 238.628 96.4189 238.628 97.809C238.628 100.898 239.825 103.292 242.22 104.991L254.731 114.143C259.21 117.464 262.647 121.094 265.041 125.033C267.435 128.894 268.632 133.798 268.632 139.745C268.632 147.622 266.392 153.685 261.913 157.933C257.434 162.18 251.178 164.304 243.146 164.304ZM292.335 164.304C287.006 164.304 283.338 163.184 281.33 160.945C279.322 158.705 278.318 155.114 278.318 150.171V97.2298H272.641V81.8224H278.318V63.8664H298.012V81.8224H303.804V97.2298H298.012V144.842C298.012 146.309 298.127 147.391 298.359 148.086C298.591 148.781 299.209 149.128 300.213 149.128C300.985 149.128 301.719 149.09 302.414 149.012C303.109 148.935 303.572 148.897 303.804 148.897V162.798C302.645 163.107 300.946 163.416 298.707 163.725C296.544 164.111 294.42 164.304 292.335 164.304Z" fill="black"/>
<line x1="65" y1="290.5" x2="460" y2="290.5" stroke="#A91313" stroke-width="33"/>
</svg>
